<svg width="15" height="13" viewBox="0 0 15 13" fill="none" xmlns="http://www.w3.org/2000/svg">
<path fill-rule="evenodd" clip-rule="evenodd" d="M15 6.5C15 6.74623 14.9012 6.98237 14.7254 7.15648C14.5496 7.33059 14.3112 7.4284 14.0626 7.4284H3.20194L7.22712 11.4131C7.31427 11.4994 7.38341 11.6019 7.43058 11.7147C7.47775 11.8275 7.50202 11.9483 7.50202 12.0704C7.50202 12.1925 7.47775 12.3134 7.43058 12.4262C7.38341 12.5389 7.31427 12.6414 7.22712 12.7277C7.13996 12.8141 7.0365 12.8825 6.92262 12.9292C6.80875 12.976 6.6867 13 6.56344 13C6.44019 13 6.31814 12.976 6.20426 12.9292C6.09039 12.8825 5.98692 12.8141 5.89977 12.7277L0.275395 7.15731C0.188099 7.07107 0.118838 6.96862 0.0715815 6.85583C0.0243247 6.74303 0 6.62212 0 6.5C0 6.37788 0.0243247 6.25697 0.0715815 6.14417C0.118838 6.03138 0.188099 5.92893 0.275395 5.84269L5.89977 0.272267C6.07578 0.0979375 6.31452 0 6.56344 0C6.81237 0 7.0511 0.0979375 7.22712 0.272267C7.40314 0.446596 7.50202 0.683038 7.50202 0.929577C7.50202 1.17612 7.40314 1.41256 7.22712 1.58689L3.20194 5.5716H14.0626C14.3112 5.5716 14.5496 5.66941 14.7254 5.84352C14.9012 6.01763 15 6.25377 15 6.5Z" fill="#008CA3"/>
</svg>
